<?xml version="1.0" encoding="UTF-8" standalone="no"?>
<!-- Created with Inkscape (http://www.inkscape.org/) -->

<svg
   xmlns:dc="http://purl.org/dc/elements/1.1/"
   xmlns:cc="http://creativecommons.org/ns#"
   xmlns:rdf="http://www.w3.org/1999/02/22-rdf-syntax-ns#"
   xmlns:svg="http://www.w3.org/2000/svg"
   xmlns="http://www.w3.org/2000/svg"
   xmlns:sodipodi="http://sodipodi.sourceforge.net/DTD/sodipodi-0.dtd"
   xmlns:inkscape="http://www.inkscape.org/namespaces/inkscape"
   width="262.88815mm"
   height="58.42799mm"
   viewBox="0 0 262.88816 58.42799"
   version="1.1"
   id="svg8"
   inkscape:version="0.92.4 (5da689c313, 2019-01-14)"
   sodipodi:docname="selvaAbajo.svg">
  <defs
     id="defs2" />
  <sodipodi:namedview
     id="base"
     pagecolor="#ffffff"
     bordercolor="#666666"
     borderopacity="1.0"
     inkscape:pageopacity="0.0"
     inkscape:pageshadow="2"
     inkscape:zoom="0.7"
     inkscape:cx="318.15811"
     inkscape:cy="340.24375"
     inkscape:document-units="mm"
     inkscape:current-layer="layer1"
     showgrid="false"
     inkscape:window-width="1366"
     inkscape:window-height="705"
     inkscape:window-x="-8"
     inkscape:window-y="-8"
     inkscape:window-maximized="1" />
  <metadata
     id="metadata5">
    <rdf:RDF>
      <cc:Work
         rdf:about="">
        <dc:format>image/svg+xml</dc:format>
        <dc:type
           rdf:resource="http://purl.org/dc/dcmitype/StillImage" />
        <dc:title></dc:title>
      </cc:Work>
    </rdf:RDF>
  </metadata>
  <g
     inkscape:label="Capa 1"
     inkscape:groupmode="layer"
     id="layer1"
     transform="translate(38.007261,0.1745322)">
    <path
       style="fill:#005500;stroke:#005500;stroke-width:0.26458332px;stroke-linecap:butt;stroke-linejoin:miter;stroke-opacity:1"
       d="M 60.098213,10.494049 C 66.52381,64.166666 100.54166,56.607144 100.54166,56.607144 71.180841,51.341359 68.518054,29.085914 60.098213,10.494049 Z"
       id="path10"
       inkscape:connector-curvature="0"
       sodipodi:nodetypes="ccc" />
    <path
       style="fill:#005500;stroke:#005500;stroke-width:0.26458332px;stroke-linecap:butt;stroke-linejoin:miter;stroke-opacity:1"
       d="M 52.840412,18.049649 C 68.306589,69.84574 100.54166,56.607144 100.54166,56.607144 70.712999,56.414974 64.301493,34.937359 52.840412,18.049649 Z"
       id="path10-1"
       inkscape:connector-curvature="0"
       sodipodi:nodetypes="ccc" />
    <path
       style="fill:#005500;stroke:#005500;stroke-width:0.26458332px;stroke-linecap:butt;stroke-linejoin:miter;stroke-opacity:1"
       d="M 68.784933,4.1323856 C 65.726048,58.101649 100.54166,56.607144 100.54166,56.607144 72.554026,46.288303 73.823972,23.910132 68.784933,4.1323856 Z"
       id="path10-3"
       inkscape:connector-curvature="0"
       sodipodi:nodetypes="ccc"
       inkscape:transform-center-x="-0.42114888"
       inkscape:transform-center-y="-0.049760091" />
    <path
       style="fill:#005500;stroke:#005500;stroke-width:0.26458332px;stroke-linecap:butt;stroke-linejoin:miter;stroke-opacity:1"
       d="M 77.280324,-0.14671339 C 65.913653,52.700592 100.54166,56.607144 100.54166,56.607144 74.48607,42.085025 79.200787,20.172318 77.280324,-0.14671339 Z"
       id="path10-3-1"
       inkscape:connector-curvature="0"
       sodipodi:nodetypes="ccc"
       inkscape:transform-center-x="0.62728364"
       inkscape:transform-center-y="-1.1052893" />
    <path
       style="fill:#005500;stroke:#005500;stroke-width:0.26458332px;stroke-linecap:butt;stroke-linejoin:miter;stroke-opacity:1"
       d="M 85.962771,8.0841506 C 67.19869,58.778807 100.54166,56.607144 100.54166,56.607144 76.815191,38.528417 84.975144,28.469827 85.962771,8.0841506 Z"
       id="path10-3-1-2"
       inkscape:connector-curvature="0"
       sodipodi:nodetypes="ccc"
       inkscape:transform-center-x="2.1709643"
       inkscape:transform-center-y="-1.0204043" />
    <path
       style="fill:#005500;stroke:#005500;stroke-width:0.26458332px;stroke-linecap:butt;stroke-linejoin:miter;stroke-opacity:1"
       d="M 92.819096,6.5333276 C 67.21903,54.142946 100.54166,56.607144 100.54166,56.607144 86.05611,29.993215 94.589029,21.944756 92.819096,6.5333276 Z"
       id="path10-3-1-2-9"
       inkscape:connector-curvature="0"
       sodipodi:nodetypes="ccc"
       inkscape:transform-center-x="4.0068569"
       inkscape:transform-center-y="-0.92134135" />
    <path
       style="fill:#005500;stroke:#005500;stroke-width:0.26458332px;stroke-linecap:butt;stroke-linejoin:miter;stroke-opacity:1"
       d="M 130.93089,10.494052 C 124.5053,64.166665 90.487491,56.607144 90.487491,56.607144 119.84826,51.341364 122.51105,29.085915 130.93089,10.494052 Z"
       id="path10-9"
       inkscape:connector-curvature="0"
       sodipodi:nodetypes="ccc" />
    <path
       style="fill:#005500;stroke:#005500;stroke-width:0.26458332px;stroke-linecap:butt;stroke-linejoin:miter;stroke-opacity:1"
       d="M 138.18869,18.049652 C 122.72252,69.845745 90.487491,56.607144 90.487491,56.607144 120.31611,56.414974 126.72761,34.937365 138.18869,18.049652 Z"
       id="path10-1-1"
       inkscape:connector-curvature="0"
       sodipodi:nodetypes="ccc" />
    <path
       style="fill:#37c871;stroke:#37c871;stroke-width:0.26458332"
       id="path156-9"
       sodipodi:type="arc"
       sodipodi:cx="140.85104"
       sodipodi:cy="-35.831997"
       sodipodi:rx="20.446119"
       sodipodi:ry="21.381561"
       sodipodi:start="5.9987141"
       sodipodi:end="5.9949357"
       d="m 160.47544,-41.832731 a 20.446119,21.381561 0 0 1 -13.86766,26.517297 20.446119,21.381561 0 0 1 -25.37025,-14.477069 20.446119,21.381561 0 0 1 13.81972,-26.544647 20.446119,21.381561 0 0 1 25.39637,14.426921 l -19.60258,6.078232 z"
       transform="scale(1,-1)" />
    <path
       style="fill:#005500;stroke:#005500;stroke-width:0.26458332px;stroke-linecap:butt;stroke-linejoin:miter;stroke-opacity:1"
       d="M 122.24417,4.1323876 C 125.30306,58.101654 90.487491,56.607144 90.487491,56.607144 118.47508,46.288305 117.20513,23.910135 122.24417,4.1323876 Z"
       id="path10-3-4"
       inkscape:connector-curvature="0"
       sodipodi:nodetypes="ccc"
       inkscape:transform-center-x="0.42114825"
       inkscape:transform-center-y="-0.049760091" />
    <path
       style="fill:#005500;stroke:#005500;stroke-width:0.26458332px;stroke-linecap:butt;stroke-linejoin:miter;stroke-opacity:1"
       d="M 113.74878,-0.14671139 C 125.11545,52.700594 90.487491,56.607144 90.487491,56.607144 116.54303,42.085025 111.82832,20.172321 113.74878,-0.14671139 Z"
       id="path10-3-1-29"
       inkscape:connector-curvature="0"
       sodipodi:nodetypes="ccc"
       inkscape:transform-center-x="-0.62728425"
       inkscape:transform-center-y="-1.1052893" />
    <path
       style="fill:#005500;stroke:#005500;stroke-width:0.26458332px;stroke-linecap:butt;stroke-linejoin:miter;stroke-opacity:1"
       d="M 105.06637,8.0841526 C 123.83041,58.778814 90.487491,56.607144 90.487491,56.607144 114.21391,38.528415 106.05399,28.469825 105.06637,8.0841526 Z"
       id="path10-3-1-2-0"
       inkscape:connector-curvature="0"
       sodipodi:nodetypes="ccc"
       inkscape:transform-center-x="-2.1709649"
       inkscape:transform-center-y="-1.0204043" />
    <path
       style="fill:#005500;stroke:#005500;stroke-width:0.26458332px;stroke-linecap:butt;stroke-linejoin:miter;stroke-opacity:1"
       d="M 98.210062,6.5333296 C 123.81008,54.142954 90.487491,56.607144 90.487491,56.607144 105.9599,32.963627 98.566645,25.05584 98.210062,6.5333296 Z"
       id="path10-3-1-2-9-6"
       inkscape:connector-curvature="0"
       sodipodi:nodetypes="ccc"
       inkscape:transform-center-x="-4.0068574"
       inkscape:transform-center-y="-0.92134135" />
    <path
       style="fill:#37c871;stroke:#37c871;stroke-width:0.26458332"
       id="path156-8"
       sodipodi:type="arc"
       sodipodi:cx="-17.423613"
       sodipodi:cy="-29.307606"
       sodipodi:rx="20.446119"
       sodipodi:ry="21.381561"
       sodipodi:start="5.9987141"
       sodipodi:end="5.9949357"
       d="M 2.2007811,-35.30834 A 20.446119,21.381561 0 0 1 -11.666876,-8.7910427 20.446119,21.381561 0 0 1 -37.037131,-23.268112 20.446119,21.381561 0 0 1 -23.217403,-49.812759 20.446119,21.381561 0 0 1 2.1789599,-35.385838 l -19.6025729,6.078232 z"
       transform="scale(1,-1)" />
    <path
       style="fill:#00aa44;stroke:#00aa44;stroke-width:0.26458332"
       id="path175-68"
       sodipodi:type="arc"
       sodipodi:cx="-17.331873"
       sodipodi:cy="-29.116795"
       sodipodi:rx="18.463655"
       sodipodi:ry="19.380033"
       sodipodi:start="5.9987141"
       sodipodi:end="5.9949442"
       d="m 0.38973177,-34.5558 a 18.463655,19.380033 0 0 1 -12.52308077,24.035025 18.463655,19.380033 0 0 1 -22.91033,-13.121962 18.463655,19.380033 0 0 1 12.479896,-24.059759 18.463655,19.380033 0 0 1 22.93385393,13.07661 l -17.70194393,5.509091 z"
       transform="scale(1,-1)" />
    <path
       style="fill:#005500;stroke:#005500;stroke-width:0.26458332px;stroke-linecap:butt;stroke-linejoin:miter;stroke-opacity:1"
       d="M -28.226837,39.51159 C -1.9231669,-7.7129284 26.685254,12.184801 26.685254,12.184801 -2.4788369,5.9204036 -13.384217,25.50274 -28.226837,39.51159 Z"
       id="path10-8-8-4"
       inkscape:connector-curvature="0"
       sodipodi:nodetypes="ccc" />
    <path
       style="fill:#005500;stroke:#005500;stroke-width:0.26458332px;stroke-linecap:butt;stroke-linejoin:miter;stroke-opacity:1"
       d="M -32.076416,29.767692 C 1.8804831,-12.291388 26.685254,12.184801 26.685254,12.184801 -0.98726688,1.0484796 -15.066217,18.489205 -32.076416,29.767692 Z"
       id="path10-1-8-2-1"
       inkscape:connector-curvature="0"
       sodipodi:nodetypes="ccc" />
    <path
       style="fill:#005500;stroke:#005500;stroke-width:0.26458332px;stroke-linecap:butt;stroke-linejoin:miter;stroke-opacity:1"
       d="M -22.602267,48.692775 C -4.9617969,-2.4037294 26.685254,12.184801 26.685254,12.184801 -3.1249069,11.116715 -10.437997,32.304304 -22.602267,48.692775 Z"
       id="path10-3-7-5-8"
       inkscape:connector-curvature="0"
       sodipodi:nodetypes="ccc"
       inkscape:transform-center-x="-0.45809865"
       inkscape:transform-center-y="-0.71985593" />
    <path
       style="fill:#005500;stroke:#005500;stroke-width:0.26458332px;stroke-linecap:butt;stroke-linejoin:miter;stroke-opacity:1"
       d="M -16.364777,55.874435 C -6.8368469,2.6648806 26.685254,12.184801 26.685254,12.184801 -2.9315569,15.738721 -6.8807369,37.802255 -16.364777,55.874435 Z"
       id="path10-3-1-9-0-5"
       inkscape:connector-curvature="0"
       sodipodi:nodetypes="ccc"
       inkscape:transform-center-x="-0.060181921"
       inkscape:transform-center-y="0.88865668" />
    <path
       style="fill:#37c871;stroke:#37c871;stroke-width:0.26458332"
       id="path156"
       sodipodi:type="arc"
       sodipodi:cx="43.297661"
       sodipodi:cy="-35.965641"
       sodipodi:rx="20.446119"
       sodipodi:ry="21.381561"
       sodipodi:start="5.9987141"
       sodipodi:end="5.9949357"
       d="M 62.922055,-41.966375 A 20.446119,21.381561 0 0 1 49.054398,-15.449078 20.446119,21.381561 0 0 1 23.684143,-29.926147 20.446119,21.381561 0 0 1 37.50387,-56.470794 20.446119,21.381561 0 0 1 62.900233,-42.043873 l -19.602572,6.078232 z"
       transform="scale(1,-1)" />
    <path
       style="fill:#005500;stroke:#005500;stroke-width:0.26458332px;stroke-linecap:butt;stroke-linejoin:miter;stroke-opacity:1"
       d="M -5.2091569,51.551938 C -3.3423469,-2.4717064 26.685254,12.184801 26.685254,12.184801 -2.1255269,19.912997 1.6093831,32.315031 -5.2091569,51.551938 Z"
       id="path10-3-1-2-2-7-8"
       inkscape:connector-curvature="0"
       sodipodi:nodetypes="ccc"
       inkscape:transform-center-x="-0.25175012"
       inkscape:transform-center-y="0.30665494" />
    <path
       style="fill:#00aa44;stroke:#00aa44;stroke-width:0.26458332"
       id="path175"
       sodipodi:type="arc"
       sodipodi:cx="43.389397"
       sodipodi:cy="-35.77483"
       sodipodi:rx="18.463655"
       sodipodi:ry="19.380033"
       sodipodi:start="5.9987141"
       sodipodi:end="5.9949442"
       d="m 61.111001,-41.213835 a 18.463655,19.380033 0 0 1 -12.52308,24.035024 18.463655,19.380033 0 0 1 -22.91033,-13.121961 18.463655,19.380033 0 0 1 12.479896,-24.059759 18.463655,19.380033 0 0 1 22.933854,13.07661 l -17.701944,5.509091 z"
       transform="scale(1,-1)" />
    <path
       style="fill:#008033;stroke:#008033;stroke-width:0.26458332"
       id="path132"
       sodipodi:type="arc"
       sodipodi:cx="-33.725883"
       sodipodi:cy="66.694115"
       sodipodi:rx="13.607142"
       sodipodi:ry="14.174108"
       sodipodi:start="5.998719"
       sodipodi:end="3.2450062"
       sodipodi:open="true"
       d="m -20.665591,62.716219 a 13.607142,14.174108 0 0 1 -4.517218,15.010233 13.607142,14.174108 0 0 1 -15.039431,1.42208 13.607142,14.174108 0 0 1 -7.038091,-13.917601"
       transform="matrix(-0.88583239,0.46400537,0.46400537,0.88583239,0,0)" />
    <path
       style="fill:#008033;stroke:#008033;stroke-width:0.26458332px;stroke-linecap:butt;stroke-linejoin:miter;stroke-opacity:1"
       d="M 72.963243,37.284443 C 65.237446,23.178195 54.673821,17.459902 44.46607,11.295858 c 0.675759,10.982788 5.183367,-1.3094004 3.157879,34.462299 z"
       id="path136"
       inkscape:connector-curvature="0"
       sodipodi:nodetypes="cccc" />
    <path
       style="fill:#00aa44;stroke:#00aa44;stroke-width:0.26458332"
       id="path175-6"
       sodipodi:type="arc"
       sodipodi:cx="140.94278"
       sodipodi:cy="-35.641186"
       sodipodi:rx="18.463655"
       sodipodi:ry="19.380033"
       sodipodi:start="5.9987141"
       sodipodi:end="5.9949442"
       d="m 158.66438,-41.080191 a 18.463655,19.380033 0 0 1 -12.52308,24.035025 18.463655,19.380033 0 0 1 -22.91033,-13.121962 18.463655,19.380033 0 0 1 12.4799,-24.059759 18.463655,19.380033 0 0 1 22.93385,13.07661 l -17.70194,5.509091 z"
       transform="scale(1,-1)" />
    <path
       style="fill:#008033;stroke:#008033;stroke-width:0.26458332"
       id="path132-5"
       sodipodi:type="arc"
       sodipodi:cx="130.21793"
       sodipodi:cy="-18.695187"
       sodipodi:rx="13.607142"
       sodipodi:ry="14.174108"
       sodipodi:start="5.998719"
       sodipodi:end="3.2450062"
       sodipodi:open="true"
       d="M 143.27822,-22.673083 A 13.607142,14.174108 0 0 1 138.761,-7.6628491 13.607142,14.174108 0 0 1 123.72157,-6.2407693 13.607142,14.174108 0 0 1 116.68348,-20.15837"
       transform="rotate(27.64587)" />
    <path
       style="fill:#008033;stroke:#008033;stroke-width:0.26458332px;stroke-linecap:butt;stroke-linejoin:miter;stroke-opacity:1"
       d="m 111.88458,37.714651 c 7.7258,-14.106248 18.28942,-19.824542 28.49717,-25.988585 -0.97235,11.448116 -12.49314,8.296949 -3.15787,34.462299 z"
       id="path136-9"
       inkscape:connector-curvature="0"
       sodipodi:nodetypes="cccc" />
    <path
       style="fill:#005500;stroke:#005500;stroke-width:0.26458332px;stroke-linecap:butt;stroke-linejoin:miter;stroke-opacity:1"
       d="M 0.54657312,55.587501 C -5.0819269,1.8254446 26.685254,12.184801 26.685254,12.184801 3.1874031,31.315498 8.0298631,41.999086 0.54657312,55.587501 Z"
       id="path10-3-1-2-9-2-6-7"
       inkscape:connector-curvature="0"
       sodipodi:nodetypes="ccc"
       inkscape:transform-center-x="-0.083045075"
       inkscape:transform-center-y="0.7659915" />
    <path
       style="fill:#2ca02c;stroke:#37c837;stroke-width:0.26458332px;stroke-linecap:butt;stroke-linejoin:miter;stroke-opacity:1"
       d="M 6.5379165,20.383448 C 7.787275,31.446845 -0.76945233,37.901467 -0.34232216,43.662478 2.5124875,60.542485 18.829066,59.853773 19.480451,43.558997 19.729067,39.839199 11.978561,26.805237 6.5379165,20.383448 Z"
       id="path173"
       inkscape:connector-curvature="0"
       sodipodi:nodetypes="cccc" />
    <path
       style="fill:#2ca02c;stroke:#37c837;stroke-width:0.26458332px;stroke-linecap:butt;stroke-linejoin:miter;stroke-opacity:1"
       d="M 11.314079,11.475856 C 12.563436,22.539255 4.0067085,28.993876 4.4338376,34.754887 7.2886486,51.634894 23.605227,50.946183 24.256612,34.651406 24.505227,30.931608 16.754726,17.897643 11.314079,11.475856 Z"
       id="path173-6"
       inkscape:connector-curvature="0"
       sodipodi:nodetypes="cccc" />
    <path
       style="fill:#2ca02c;stroke:#37c837;stroke-width:0.26458332px;stroke-linecap:butt;stroke-linejoin:miter;stroke-opacity:1"
       d="M 16.234751,3.7064476 C 17.484109,14.769847 8.9273785,21.224468 9.3545082,26.98548 12.209319,43.865489 28.525897,43.176777 29.177282,26.881998 29.425898,23.162198 21.675396,10.128235 16.234751,3.7064476 Z"
       id="path173-5"
       inkscape:connector-curvature="0"
       sodipodi:nodetypes="cccc" />
    <path
       style="fill:#2ca02c;stroke:#37c837;stroke-width:0.26458332px;stroke-linecap:butt;stroke-linejoin:miter;stroke-opacity:1"
       d="M 43.305082,31.29792 C 34.506088,38.119755 35.849588,48.753414 31.423572,52.465838 17.33681,62.194546 6.4489844,50.022436 17.67072,38.189566 20.16274,35.416742 34.908502,31.8788 43.305082,31.29792 Z"
       id="path173-5-9"
       inkscape:connector-curvature="0"
       sodipodi:nodetypes="cccc" />
    <path
       style="fill:#2ca02c;stroke:#37c837;stroke-width:0.26458332px;stroke-linecap:butt;stroke-linejoin:miter;stroke-opacity:1"
       d="M 47.313922,20.148601 C 38.514917,26.970463 39.858414,37.604126 35.432399,41.316552 21.345636,51.045258 10.45781,38.873149 21.679546,27.040277 24.171566,24.267453 38.91734,20.72948 47.313922,20.148601 Z"
       id="path173-5-9-2"
       inkscape:connector-curvature="0"
       sodipodi:nodetypes="cccc" />
    <path
       style="fill:#2ca02c;stroke:#37c837;stroke-width:0.26458332px;stroke-linecap:butt;stroke-linejoin:miter;stroke-opacity:1"
       d="M 48.476048,10.300341 C 39.677055,17.122175 41.020549,27.755846 36.594529,31.468282 22.507766,41.19699 11.619941,29.02488 22.841685,17.191986 25.333706,14.419161 40.079467,10.88122 48.476048,10.300341 Z"
       id="path173-5-9-7"
       inkscape:connector-curvature="0"
       sodipodi:nodetypes="cccc" />
    <path
       style="fill:#37c871;stroke:#37c871;stroke-width:0.26458332"
       id="path156-8-5"
       sodipodi:type="arc"
       sodipodi:cx="204.29727"
       sodipodi:cy="-31.499866"
       sodipodi:rx="20.446119"
       sodipodi:ry="21.381561"
       sodipodi:start="5.9987141"
       sodipodi:end="5.9949357"
       d="m 223.92167,-37.500601 a 20.446119,21.381561 0 0 1 -13.86766,26.517298 20.446119,21.381561 0 0 1 -25.37026,-14.47707 20.446119,21.381561 0 0 1 13.81973,-26.544647 20.446119,21.381561 0 0 1 25.39636,14.426921 l -19.60257,6.078233 z"
       transform="scale(1,-1)" />
    <path
       style="fill:#00aa44;stroke:#00aa44;stroke-width:0.26458332"
       id="path175-68-0"
       sodipodi:type="arc"
       sodipodi:cx="204.38901"
       sodipodi:cy="-31.309055"
       sodipodi:rx="18.463655"
       sodipodi:ry="19.380033"
       sodipodi:start="5.9987141"
       sodipodi:end="5.9949442"
       d="m 222.11061,-36.748061 a 18.463655,19.380033 0 0 1 -12.52308,24.035025 18.463655,19.380033 0 0 1 -22.91033,-13.121961 18.463655,19.380033 0 0 1 12.4799,-24.059759 18.463655,19.380033 0 0 1 22.93385,13.07661 l -17.70194,5.509091 z"
       transform="scale(1,-1)" />
    <path
       style="fill:#005500;stroke:#005500;stroke-width:0.26458332px;stroke-linecap:butt;stroke-linejoin:miter;stroke-opacity:1"
       d="M 217.17636,41.495978 C 190.87269,-5.7285394 162.26427,14.169189 162.26427,14.169189 c 29.16409,-6.2643964 40.06947,13.317939 54.91209,27.326789 z"
       id="path10-8-8"
       inkscape:connector-curvature="0"
       sodipodi:nodetypes="ccc" />
    <path
       style="fill:#005500;stroke:#005500;stroke-width:0.26458332px;stroke-linecap:butt;stroke-linejoin:miter;stroke-opacity:1"
       d="M 221.02593,31.75208 C 187.06904,-10.307003 162.26427,14.169189 162.26427,14.169189 189.93679,3.0328676 204.01573,20.473593 221.02593,31.75208 Z"
       id="path10-1-8-2"
       inkscape:connector-curvature="0"
       sodipodi:nodetypes="ccc" />
    <path
       style="fill:#005500;stroke:#005500;stroke-width:0.26458332px;stroke-linecap:butt;stroke-linejoin:miter;stroke-opacity:1"
       d="M 211.55178,50.677164 C 193.91132,-0.41934039 162.26427,14.169189 162.26427,14.169189 c 29.81016,-1.068087 37.12325,20.119503 49.28751,36.507975 z"
       id="path10-3-7-5"
       inkscape:connector-curvature="0"
       sodipodi:nodetypes="ccc"
       inkscape:transform-center-x="0.45809886"
       inkscape:transform-center-y="-0.71985551" />
    <path
       style="fill:#005500;stroke:#005500;stroke-width:0.26458332px;stroke-linecap:butt;stroke-linejoin:miter;stroke-opacity:1"
       d="M 205.3143,57.858823 C 195.78637,4.6492676 162.26427,14.169189 162.26427,14.169189 c 29.61681,3.553921 33.56599,25.617454 43.05003,43.689634 z"
       id="path10-3-1-9-0"
       inkscape:connector-curvature="0"
       sodipodi:nodetypes="ccc"
       inkscape:transform-center-x="0.06018213"
       inkscape:transform-center-y="0.88865686" />
    <path
       style="fill:#005500;stroke:#005500;stroke-width:0.26458332px;stroke-linecap:butt;stroke-linejoin:miter;stroke-opacity:1"
       d="m 194.15868,53.536326 c -1.86681,-54.02364339 -31.89441,-39.367137 -31.89441,-39.367137 28.81078,7.728195 25.07587,20.13023 31.89441,39.367137 z"
       id="path10-3-1-2-2-7"
       inkscape:connector-curvature="0"
       sodipodi:nodetypes="ccc"
       inkscape:transform-center-x="0.25175033"
       inkscape:transform-center-y="0.30665505" />
    <path
       style="fill:#005500;stroke:#005500;stroke-width:0.26458332px;stroke-linecap:butt;stroke-linejoin:miter;stroke-opacity:1"
       d="m 188.40294,57.571889 c 5.62851,-53.7620564 -26.13867,-43.4027 -26.13867,-43.4027 23.49785,19.130697 18.65539,29.814285 26.13867,43.4027 z"
       id="path10-3-1-2-9-2-6"
       inkscape:connector-curvature="0"
       sodipodi:nodetypes="ccc"
       inkscape:transform-center-x="0.08304528"
       inkscape:transform-center-y="0.76599152" />
    <path
       style="fill:#2ca02c;stroke:#37c837;stroke-width:0.26458332px;stroke-linecap:butt;stroke-linejoin:miter;stroke-opacity:1"
       d="m 179.07249,22.333844 c -1.24936,11.063394 7.30736,17.518016 6.88023,23.279027 -2.85481,16.880005 -19.17138,16.191293 -19.82277,-0.103481 -0.24861,-3.719798 7.50189,-16.753761 12.94254,-23.175546 z"
       id="path173-9"
       inkscape:connector-curvature="0"
       sodipodi:nodetypes="cccc" />
    <path
       style="fill:#2ca02c;stroke:#37c837;stroke-width:0.26458332px;stroke-linecap:butt;stroke-linejoin:miter;stroke-opacity:1"
       d="m 174.29632,13.426254 c -1.24935,11.063395 7.30737,17.518016 6.88025,23.279026 -2.85482,16.880006 -19.17139,16.191294 -19.82278,-0.103481 -0.24861,-3.719798 7.50189,-16.753765 12.94253,-23.175545 z"
       id="path173-6-4"
       inkscape:connector-curvature="0"
       sodipodi:nodetypes="cccc" />
    <path
       style="fill:#2ca02c;stroke:#37c837;stroke-width:0.26458332px;stroke-linecap:butt;stroke-linejoin:miter;stroke-opacity:1"
       d="m 169.37565,5.6568436 c -1.24936,11.0634004 7.30737,17.5180204 6.88024,23.2790304 -2.85481,16.880008 -19.17138,16.191296 -19.82277,-0.103484 -0.24861,-3.719799 7.50189,-16.753766 12.94253,-23.1755464 z"
       id="path173-5-4"
       inkscape:connector-curvature="0"
       sodipodi:nodetypes="cccc" />
    <path
       style="fill:#2ca02c;stroke:#37c837;stroke-width:0.26458332px;stroke-linecap:butt;stroke-linejoin:miter;stroke-opacity:1"
       d="m 142.30532,33.248313 c 8.79899,6.821835 7.45549,17.455493 11.88151,21.167917 14.08676,9.728708 24.97459,-2.443403 13.75285,-14.276271 -2.49202,-2.772824 -17.23778,-6.310766 -25.63436,-6.891646 z"
       id="path173-5-9-5"
       inkscape:connector-curvature="0"
       sodipodi:nodetypes="cccc" />
    <path
       style="fill:#2ca02c;stroke:#37c837;stroke-width:0.26458332px;stroke-linecap:butt;stroke-linejoin:miter;stroke-opacity:1"
       d="m 138.29648,22.098994 c 8.79901,6.821862 7.45551,17.455525 11.88152,21.167951 14.08677,9.728704 24.97459,-2.443403 13.75286,-14.276276 -2.49202,-2.772823 -17.2378,-6.310795 -25.63438,-6.891675 z"
       id="path173-5-9-2-6"
       inkscape:connector-curvature="0"
       sodipodi:nodetypes="cccc" />
    <path
       style="fill:#2ca02c;stroke:#37c837;stroke-width:0.26458332px;stroke-linecap:butt;stroke-linejoin:miter;stroke-opacity:1"
       d="m 137.13435,12.250734 c 8.799,6.82183 7.4555,17.455506 11.88152,21.167941 14.08677,9.728708 24.97459,-2.443401 13.75285,-14.276291 -2.49202,-2.77283 -17.23778,-6.31077 -25.63437,-6.89165 z"
       id="path173-5-9-7-0"
       inkscape:connector-curvature="0"
       sodipodi:nodetypes="cccc" />
  </g>
</svg>
